<svg xmlns="http://www.w3.org/2000/svg" width="93" height="32" fill="none">
  <path fill="#595653" d="M21.3 30h-.5v-.1a5 5 0 0 0-.1-.2 9.5 9.5 0 0 0 0-.2 8.1 8.1 0 0 0-.1-.2V29h-.1a6.5 6.5 0 0 0 0-.2 7 7 0 0 0-.1-.2 7.6 7.6 0 0 0-.1-.2v-.2h-.1a7.4 7.4 0 0 0-.1-.3v.1a6.2 6.2 0 0 0-.2-.2v-.2h-.1v-.2a2.3 2.3 0 0 0-.1 0v-.1l-.1-.1-.1-.2-.1-.1a1 1 0 0 0-.1-.2l-.1-.1-.2-.2v-.1h-.1l-.1-.2-.1-.1a9.5 9.5 0 0 0-.4-.4l-.1-.1a7.3 7.3 0 0 0-.1-.1 8.2 8.2 0 0 0-.4-.4 7.1 7.1 0 0 0-.2 0v-.1l-.1-.1-.4-.3a9.7 9.7 0 0 0-.2-.1l-.1-.1a9.5 9.5 0 0 0-.5-.3 11.8 11.8 0 0 0-.1 0 9.6 9.6 0 0 0-.8-.4 9.2 9.2 0 0 0-.3-.1h1.4c.3 0 .5-.3.5-.6s-.2-.6-.5-.6H16l.1-.2c.4-.2 1.1-.7 1.8-1.6l.2-.3.1-.2.1-.1v-.2h.1v-.1l.1-.1a6.4 6.4 0 0 0 .2-.3V19l.2-.1v-.2a7 7 0 0 0 .2-.3V18h.1v-.1a12.6 12.6 0 0 0 .1-.3v-.1a9 9 0 0 0 .2-.4v-.4l.1-.1a13 13 0 0 0 0-.4h.1v-.5a16.6 16.6 0 0 0 .1-.2V15a8.3 8.3 0 0 0 0-.2v-.3l.1-.2V12a17.2 17.2 0 0 0 0-.2 29.9 29.9 0 0 0 0-.4V11a27.5 27.5 0 0 0 0-.3v-.4a23.3 23.3 0 0 0-.1-.3 22.8 22.8 0 0 0 0-.4l-.1-.4C18-1.3 6.9.4 6.9.4l.4 2.3L.5 9.5.8 12l2.6 1.5c0-.3.2-.5.4-.8C5.5 11 8.7 9.6 9.6 9.3l.3-.1a17.6 17.6 0 0 0-3.7 13c-.2 0-.4.3-.4.6s.2.6.4.6h1.4a9.4 9.4 0 0 0-5.2 4.9 2.6 2.6 0 0 0-.3.8v.2a4.2 4.2 0 0 0 0 .3l-.1.1v.3h-.6a.9.9 0 0 0-.6.2.8.8 0 0 0-.2.2.7.7 0 0 0 .2.9.8.8 0 0 0 .6.2h20a.9.9 0 0 0 .5-.2.8.8 0 0 0 .2-.3.7.7 0 0 0-.2-.8.9.9 0 0 0-.6-.2Zm23.4 0h-.6v-.1a5 5 0 0 0 0-.2 9.5 9.5 0 0 0 0-.2 8.1 8.1 0 0 0-.1-.2V29h-.1a6.5 6.5 0 0 0 0-.2 7 7 0 0 0-.1-.2 7.6 7.6 0 0 0-.1-.3v-.1h-.1a7.4 7.4 0 0 0-.1-.3v.1h-.1a6.2 6.2 0 0 0 0-.2h-.1v-.2h-.1v-.2a2.3 2.3 0 0 0-.1 0v-.1L43 27l-.1-.2-.1-.1a1 1 0 0 0-.1-.2h-.1v-.1l-.2-.2v-.1h-.1l-.1-.2-.1-.1a9.4 9.4 0 0 0-.4-.4l-.1-.1a6.7 6.7 0 0 0-.2-.1 8.2 8.2 0 0 0-.3-.4 7.1 7.1 0 0 0-.2 0v-.1l-.1-.1-.4-.3a9 9 0 0 0-.2-.1l-.1-.1a9.5 9.5 0 0 0-.5-.3 11.8 11.8 0 0 0-.1 0 9.6 9.6 0 0 0-.8-.4 9.2 9.2 0 0 0-.3-.1h1.4c.3 0 .5-.3.5-.6s-.2-.6-.5-.6h-.4l.1-.2c.4-.2 1.1-.7 1.8-1.6l.2-.3a6.3 6.3 0 0 0 .1-.2l.1-.1v-.2h.2v-.2a6.4 6.4 0 0 0 .2-.3v-.2l.1-.1.1-.2a6.5 6.5 0 0 0 .1-.3l.1-.2v-.2h.1v-.1a12.6 12.6 0 0 0 .1-.3v-.1l.1-.2V17l.1-.2v-.3l.1-.2a9.7 9.7 0 0 0 0-.2l.1-.2v-.5l.1-.2V15a8.3 8.3 0 0 0 0-.2v-.3l.1-.2V12a17.2 17.2 0 0 0 0-.2 27 27 0 0 0 0-.4V11a27.5 27.5 0 0 0 0-.3v-.4a23.3 23.3 0 0 0-.1-.3 22.8 22.8 0 0 0 0-.4l-.1-.4C41.5-1.3 30.3.4 30.3.4l.4 2.3-6.8 6.8.3 2.6 2.5 1.5.5-.8C28.8 11 32 9.6 33 9.3l.3-.1a17.6 17.6 0 0 0-3.7 13c-.2 0-.4.3-.4.6s.2.6.4.6H31a9.4 9.4 0 0 0-5.2 4.9 7.4 7.4 0 0 0-.3.8v.2a4.1 4.1 0 0 0-.1.3v.4h-.7a.9.9 0 0 0-.5.2.7.7 0 0 0 0 1 .9.9 0 0 0 .5.3h20a.9.9 0 0 0 .6-.2.8.8 0 0 0 .2-.3.7.7 0 0 0-.2-.8.9.9 0 0 0-.6-.2Zm23.4 0h-.6v-.1a5 5 0 0 0 0-.2 9.5 9.5 0 0 0 0-.2 8.1 8.1 0 0 0-.1-.2l-.1-.2a6.5 6.5 0 0 0 0-.2 7 7 0 0 0-.1-.2 7.6 7.6 0 0 0-.1-.2v-.1l-.1-.1a7.4 7.4 0 0 0-.1-.3h-.1a6.2 6.2 0 0 0-.1-.2v-.2h-.1v-.2a2.3 2.3 0 0 0-.1 0l-.1-.1V27l-.1-.2-.1-.1H66a1 1 0 0 0 0-.2v-.1l-.2-.2-.1-.1-.1-.2-.2-.1a9.5 9.5 0 0 0-.3-.4l-.1-.1a6.7 6.7 0 0 0-.2-.1 8.2 8.2 0 0 0-.3-.4 7.1 7.1 0 0 0-.2 0v-.1l-.1-.1-.5-.3a9.7 9.7 0 0 0-.1-.1l-.2-.1a9.5 9.5 0 0 0-.4-.3h-.2a9.6 9.6 0 0 0-.8-.4 9.2 9.2 0 0 0-.2-.1h1.4c.3 0 .4-.3.4-.6s-.1-.6-.4-.6h-.4V22a5.8 5.8 0 0 0 2-1.9l.2-.2v-.1l.2-.2v-.1l.1-.1a6.4 6.4 0 0 0 .2-.3v-.2l.1-.1v-.2h.1a6.5 6.5 0 0 0 .1-.3l.1-.2v-.2l.1-.1a12.6 12.6 0 0 0 .1-.3v-.1l.1-.2V17l.1-.2v-.3a13 13 0 0 0 .2-.4v-.7l.1-.2V15a8.3 8.3 0 0 0 0-.2v-.5l.1-.3v-2a17.2 17.2 0 0 0 0-.2 27 27 0 0 0 0-.4V11a27.5 27.5 0 0 0 0-.3v-.1l-.1-.3a23.3 23.3 0 0 0 0-.3 22.8 22.8 0 0 0 0-.4h-.1v-.4C64.9-1.3 53.7.4 53.7.4l.3 2.3-6.7 6.8.3 2.6 2.5 1.5.5-.8a16.5 16.5 0 0 1 6-3.6 17.6 17.6 0 0 0-3.7 13c-.2 0-.3.3-.3.6s.2.6.4.6h1.4a9.4 9.4 0 0 0-5.2 4.9 7.4 7.4 0 0 0-.3.8v.2a3.8 3.8 0 0 0-.1.3v.2l-.1.2h-.6a.9.9 0 0 0-.6.2.8.8 0 0 0-.1.2.7.7 0 0 0 .1.9.8.8 0 0 0 .6.2h20a.9.9 0 0 0 .6-.2.8.8 0 0 0 .2-.3.7.7 0 0 0-.2-.8.9.9 0 0 0-.6-.2Zm23.4 0h-.6v-.4a9.5 9.5 0 0 0-.1-.2 8.1 8.1 0 0 0 0-.2l-.1-.2a6.5 6.5 0 0 0 0-.2h-.1a7 7 0 0 0 0-.2 7.6 7.6 0 0 0-.2-.3v-.1a7.4 7.4 0 0 0-.1-.3l-.1-.1a6.2 6.2 0 0 0-.1-.2l-.1-.2a9.2 9.2 0 0 0-.1-.2l-.1-.1V27l-.1-.2a5.3 5.3 0 0 0-.1 0v-.1h-.1a1 1 0 0 0 0-.2h-.1v-.1l-.2-.2-.1-.1-.1-.2h-.1v-.1h-.1a9.4 9.4 0 0 0-.3-.4l-.1-.1a6.7 6.7 0 0 0-.2-.1 8.2 8.2 0 0 0-.4-.4 7.1 7.1 0 0 0-.1 0v-.1l-.1-.1a10.3 10.3 0 0 0-.5-.3 9 9 0 0 0-.1-.1l-.2-.1a9.5 9.5 0 0 0-.4-.3 11.8 11.8 0 0 0-.2 0 9.6 9.6 0 0 0-.8-.4 9.2 9.2 0 0 0-.2-.1h1.4c.2 0 .4-.3.4-.6s-.2-.6-.4-.6h-.4V22a5.8 5.8 0 0 0 2-1.9 6.3 6.3 0 0 0 .2-.2v-.1l.1-.2h.1v-.1l.1-.1a6.4 6.4 0 0 0 .2-.3v-.2l.1-.1v-.2h.1a6.5 6.5 0 0 0 .1-.3V18h.1v-.2l.1-.1a11.2 11.2 0 0 0 .1-.3v-.1l.1-.2V17l.1-.2v-.3a13 13 0 0 0 .1-.4v-.2l.1-.3a16.6 16.6 0 0 0 0-.2l.1-.2V15a8.3 8.3 0 0 0 0-.2v-.5a23.3 23.3 0 0 0 .1-.5v-1.5a33.1 33.1 0 0 0 0-.3 17.2 17.2 0 0 0 0-.2 27 27 0 0 0 0-.4V11a27.5 27.5 0 0 0 0-.3v-.1l-.1-.3a23.3 23.3 0 0 0 0-.3 22.8 22.8 0 0 0-.1-.4v-.4C88.2-1.3 77 .4 77 .4l.3 2.3-6.7 6.8.3 2.6 2.5 1.5.5-.8c1.6-1.8 4.8-3.2 5.7-3.5l.3-.1a17.6 17.6 0 0 0-3.7 13c-.2 0-.3.3-.3.6s.2.6.4.6h1.4a9.4 9.4 0 0 0-5.2 4.9 8.2 8.2 0 0 0-.3.8v.2a4.1 4.1 0 0 0-.1.3v.2l-.1.2h-.6a.9.9 0 0 0-.6.2.7.7 0 0 0 0 1 .9.9 0 0 0 .6.3h20a.9.9 0 0 0 .6-.2.8.8 0 0 0 .2-.3.7.7 0 0 0-.2-.8.9.9 0 0 0-.6-.2Z"/>
</svg>
